<mxfile host="app.diagrams.net" modified="2022-03-22T10:20:31.604Z" agent="5.0 (Windows NT 10.0; Win64; x64) AppleWebKit/537.36 (KHTML, like Gecko) Chrome/99.0.4844.51 Safari/537.36 Edg/99.0.1150.39" etag="Iz6Rdh9SrcFWbXCUgRXp" version="17.1.2" type="github">
  <diagram id="8nAm4JAwYO1-m3qGbhz5" name="Page-2">
    <mxGraphModel dx="1021" dy="571" grid="1" gridSize="10" guides="1" tooltips="1" connect="1" arrows="1" fold="1" page="1" pageScale="1" pageWidth="827" pageHeight="1169" math="0" shadow="0">
      <root>
        <mxCell id="EePveLcMBuZfn2wI0SeB-0" />
        <mxCell id="EePveLcMBuZfn2wI0SeB-1" parent="EePveLcMBuZfn2wI0SeB-0" />
        <mxCell id="EePveLcMBuZfn2wI0SeB-6" value="中医一附院his对接数据流转" style="swimlane;childLayout=stackLayout;resizeParent=1;resizeParentMax=0;startSize=20;" parent="EePveLcMBuZfn2wI0SeB-1" vertex="1">
          <mxGeometry x="150" y="50" width="590" height="460" as="geometry" />
        </mxCell>
        <mxCell id="EePveLcMBuZfn2wI0SeB-7" value="东华HIS" style="swimlane;startSize=20;" parent="EePveLcMBuZfn2wI0SeB-6" vertex="1">
          <mxGeometry y="20" width="120" height="440" as="geometry" />
        </mxCell>
        <mxCell id="EePveLcMBuZfn2wI0SeB-14" value="" style="strokeWidth=2;html=1;shape=mxgraph.flowchart.start_2;whiteSpace=wrap;" parent="EePveLcMBuZfn2wI0SeB-7" vertex="1">
          <mxGeometry x="35" y="40" width="50" height="50" as="geometry" />
        </mxCell>
        <mxCell id="EePveLcMBuZfn2wI0SeB-16" value="业务操作，如入科、调床、处理医嘱" style="whiteSpace=wrap;html=1;strokeWidth=2;" parent="EePveLcMBuZfn2wI0SeB-7" vertex="1">
          <mxGeometry x="18.75" y="120" width="82.5" height="50" as="geometry" />
        </mxCell>
        <mxCell id="EePveLcMBuZfn2wI0SeB-17" value="" style="edgeStyle=orthogonalEdgeStyle;rounded=0;orthogonalLoop=1;jettySize=auto;html=1;" parent="EePveLcMBuZfn2wI0SeB-7" source="EePveLcMBuZfn2wI0SeB-14" target="EePveLcMBuZfn2wI0SeB-16" edge="1">
          <mxGeometry relative="1" as="geometry" />
        </mxCell>
        <mxCell id="EePveLcMBuZfn2wI0SeB-8" value="东华集成平台" style="swimlane;startSize=20;" parent="EePveLcMBuZfn2wI0SeB-6" vertex="1">
          <mxGeometry x="120" y="20" width="130" height="440" as="geometry" />
        </mxCell>
        <mxCell id="EePveLcMBuZfn2wI0SeB-20" value="平台" style="shape=tapeData;whiteSpace=wrap;html=1;perimeter=ellipsePerimeter;" parent="EePveLcMBuZfn2wI0SeB-8" vertex="1">
          <mxGeometry x="25" y="105" width="80" height="80" as="geometry" />
        </mxCell>
        <mxCell id="EePveLcMBuZfn2wI0SeB-9" value="接口平台" style="swimlane;startSize=20;" parent="EePveLcMBuZfn2wI0SeB-6" vertex="1">
          <mxGeometry x="250" y="20" width="120" height="440" as="geometry" />
        </mxCell>
        <mxCell id="EePveLcMBuZfn2wI0SeB-23" value="webservice服务" style="whiteSpace=wrap;html=1;" parent="EePveLcMBuZfn2wI0SeB-9" vertex="1">
          <mxGeometry x="12" y="125" width="96" height="40" as="geometry" />
        </mxCell>
        <mxCell id="EePveLcMBuZfn2wI0SeB-26" value="" style="edgeStyle=orthogonalEdgeStyle;rounded=0;orthogonalLoop=1;jettySize=auto;html=1;startArrow=none;" parent="EePveLcMBuZfn2wI0SeB-9" source="N1O6_ICQJQtgq5w1mEK0-0" edge="1">
          <mxGeometry relative="1" as="geometry">
            <mxPoint x="60" y="250" as="targetPoint" />
          </mxGeometry>
        </mxCell>
        <mxCell id="EePveLcMBuZfn2wI0SeB-33" value="接口平台数据库" style="shape=datastore;whiteSpace=wrap;html=1;" parent="EePveLcMBuZfn2wI0SeB-9" vertex="1">
          <mxGeometry x="30" y="250" width="60" height="60" as="geometry" />
        </mxCell>
        <mxCell id="EePveLcMBuZfn2wI0SeB-36" style="edgeStyle=orthogonalEdgeStyle;rounded=0;orthogonalLoop=1;jettySize=auto;html=1;entryX=0.5;entryY=1;entryDx=0;entryDy=0;" parent="EePveLcMBuZfn2wI0SeB-9" source="EePveLcMBuZfn2wI0SeB-34" target="EePveLcMBuZfn2wI0SeB-33" edge="1">
          <mxGeometry relative="1" as="geometry" />
        </mxCell>
        <mxCell id="EePveLcMBuZfn2wI0SeB-34" value="对外接口" style="whiteSpace=wrap;html=1;" parent="EePveLcMBuZfn2wI0SeB-9" vertex="1">
          <mxGeometry x="20" y="340" width="80" height="30" as="geometry" />
        </mxCell>
        <mxCell id="EePveLcMBuZfn2wI0SeB-42" value="对外接口" style="whiteSpace=wrap;html=1;" parent="EePveLcMBuZfn2wI0SeB-9" vertex="1">
          <mxGeometry x="20" y="390" width="80" height="30" as="geometry" />
        </mxCell>
        <mxCell id="N1O6_ICQJQtgq5w1mEK0-0" value="&lt;span&gt;数据入库&lt;/span&gt;" style="text;html=1;align=center;verticalAlign=middle;resizable=0;points=[];autosize=1;strokeColor=none;fillColor=none;" vertex="1" parent="EePveLcMBuZfn2wI0SeB-9">
          <mxGeometry x="30" y="190" width="60" height="20" as="geometry" />
        </mxCell>
        <mxCell id="N1O6_ICQJQtgq5w1mEK0-1" value="" style="edgeStyle=orthogonalEdgeStyle;rounded=0;orthogonalLoop=1;jettySize=auto;html=1;endArrow=none;" edge="1" parent="EePveLcMBuZfn2wI0SeB-9" source="EePveLcMBuZfn2wI0SeB-23" target="N1O6_ICQJQtgq5w1mEK0-0">
          <mxGeometry relative="1" as="geometry">
            <mxPoint x="460" y="320" as="targetPoint" />
            <mxPoint x="460" y="280" as="sourcePoint" />
          </mxGeometry>
        </mxCell>
        <mxCell id="EePveLcMBuZfn2wI0SeB-12" value="护理系统" style="swimlane;startSize=20;" parent="EePveLcMBuZfn2wI0SeB-6" vertex="1">
          <mxGeometry x="370" y="20" width="220" height="440" as="geometry" />
        </mxCell>
        <mxCell id="EePveLcMBuZfn2wI0SeB-39" style="edgeStyle=orthogonalEdgeStyle;rounded=0;orthogonalLoop=1;jettySize=auto;html=1;" parent="EePveLcMBuZfn2wI0SeB-12" source="EePveLcMBuZfn2wI0SeB-28" target="EePveLcMBuZfn2wI0SeB-38" edge="1">
          <mxGeometry relative="1" as="geometry" />
        </mxCell>
        <mxCell id="EePveLcMBuZfn2wI0SeB-28" value="Start" style="strokeWidth=2;html=1;shape=mxgraph.flowchart.start_2;whiteSpace=wrap;" parent="EePveLcMBuZfn2wI0SeB-12" vertex="1">
          <mxGeometry x="32.5" y="55" width="55" height="50" as="geometry" />
        </mxCell>
        <mxCell id="EePveLcMBuZfn2wI0SeB-29" value="获取HIS数据" style="whiteSpace=wrap;html=1;strokeWidth=2;" parent="EePveLcMBuZfn2wI0SeB-12" vertex="1">
          <mxGeometry x="15" y="190" width="90" height="30" as="geometry" />
        </mxCell>
        <mxCell id="EePveLcMBuZfn2wI0SeB-30" value="" style="edgeStyle=orthogonalEdgeStyle;rounded=0;orthogonalLoop=1;jettySize=auto;html=1;" parent="EePveLcMBuZfn2wI0SeB-12" source="EePveLcMBuZfn2wI0SeB-28" target="EePveLcMBuZfn2wI0SeB-29" edge="1">
          <mxGeometry relative="1" as="geometry" />
        </mxCell>
        <mxCell id="EePveLcMBuZfn2wI0SeB-38" value="回传HIS，如执行医嘱" style="whiteSpace=wrap;html=1;strokeWidth=2;" parent="EePveLcMBuZfn2wI0SeB-12" vertex="1">
          <mxGeometry x="120" y="190" width="90" height="30" as="geometry" />
        </mxCell>
        <mxCell id="EePveLcMBuZfn2wI0SeB-19" value="" style="edgeStyle=orthogonalEdgeStyle;rounded=0;orthogonalLoop=1;jettySize=auto;html=1;entryX=0;entryY=0.5;entryDx=0;entryDy=0;" parent="EePveLcMBuZfn2wI0SeB-6" source="EePveLcMBuZfn2wI0SeB-16" target="EePveLcMBuZfn2wI0SeB-20" edge="1">
          <mxGeometry relative="1" as="geometry">
            <mxPoint x="135" y="165" as="targetPoint" />
          </mxGeometry>
        </mxCell>
        <mxCell id="EePveLcMBuZfn2wI0SeB-24" value="" style="edgeStyle=orthogonalEdgeStyle;rounded=0;orthogonalLoop=1;jettySize=auto;html=1;" parent="EePveLcMBuZfn2wI0SeB-6" source="EePveLcMBuZfn2wI0SeB-20" target="EePveLcMBuZfn2wI0SeB-23" edge="1">
          <mxGeometry relative="1" as="geometry" />
        </mxCell>
        <mxCell id="EePveLcMBuZfn2wI0SeB-37" style="edgeStyle=orthogonalEdgeStyle;rounded=0;orthogonalLoop=1;jettySize=auto;html=1;entryX=1;entryY=0.5;entryDx=0;entryDy=0;" parent="EePveLcMBuZfn2wI0SeB-6" source="EePveLcMBuZfn2wI0SeB-29" target="EePveLcMBuZfn2wI0SeB-34" edge="1">
          <mxGeometry relative="1" as="geometry">
            <Array as="points">
              <mxPoint x="430" y="375" />
            </Array>
          </mxGeometry>
        </mxCell>
        <mxCell id="EePveLcMBuZfn2wI0SeB-44" style="edgeStyle=orthogonalEdgeStyle;rounded=0;orthogonalLoop=1;jettySize=auto;html=1;entryX=1;entryY=0.5;entryDx=0;entryDy=0;" parent="EePveLcMBuZfn2wI0SeB-6" source="EePveLcMBuZfn2wI0SeB-38" target="EePveLcMBuZfn2wI0SeB-42" edge="1">
          <mxGeometry relative="1" as="geometry">
            <Array as="points">
              <mxPoint x="530" y="425" />
            </Array>
          </mxGeometry>
        </mxCell>
        <mxCell id="EePveLcMBuZfn2wI0SeB-45" style="edgeStyle=orthogonalEdgeStyle;rounded=0;orthogonalLoop=1;jettySize=auto;html=1;entryX=0.5;entryY=1;entryDx=0;entryDy=0;" parent="EePveLcMBuZfn2wI0SeB-6" source="EePveLcMBuZfn2wI0SeB-42" target="EePveLcMBuZfn2wI0SeB-20" edge="1">
          <mxGeometry relative="1" as="geometry" />
        </mxCell>
        <mxCell id="N1O6_ICQJQtgq5w1mEK0-2" value="东华webservice接口" style="edgeLabel;html=1;align=center;verticalAlign=middle;resizable=0;points=[];" vertex="1" connectable="0" parent="EePveLcMBuZfn2wI0SeB-45">
          <mxGeometry x="0.1187" y="-1" relative="1" as="geometry">
            <mxPoint as="offset" />
          </mxGeometry>
        </mxCell>
      </root>
    </mxGraphModel>
  </diagram>
</mxfile>
